<svg width="101" height="101" viewBox="0 0 101 101" fill="none" xmlns="http://www.w3.org/2000/svg">
<path d="M44.8945 55.7243V51.0666C44.8945 50.9838 44.9617 50.9166 45.0445 50.9166H49.5522C49.635 50.9166 49.7022 50.9838 49.7022 51.0666V60.5319" stroke="#2AA3D6" stroke-width="2" stroke-linecap="round"/>
<path d="M18.4531 66.5414V86.8239C18.4531 86.9068 18.5203 86.9739 18.6031 86.9739H31.428C31.5109 86.9739 31.578 86.9068 31.578 86.8239V72.701C31.578 72.6181 31.6452 72.551 31.728 72.551H42.3414C42.4243 72.551 42.4914 72.6181 42.4914 72.701V86.8239C42.4914 86.9068 42.5586 86.9739 42.6414 86.9739H49.5529C49.6358 86.9739 49.7029 86.9068 49.7029 86.8239V66.5414" stroke="#2AA3D6" stroke-width="2" stroke-linecap="round"/>
<path d="M12.4434 66.5416L27.4673 51.5176M55.7123 66.5416L34.1839 45.0132C34.1253 44.9546 34.0303 44.9546 33.9718 45.0132L32.4822 46.5027" stroke="#2AA3D6" stroke-width="2" stroke-linecap="round"/>
<ellipse cx="37.6842" cy="26.8784" rx="12.0191" ry="12.0191" stroke="#2AA3D6" stroke-width="2" stroke-linecap="round"/>
<path d="M34.6794 22.0707C29.7009 22.0707 25.665 28.7971 25.665 37.0946C25.665 44.9518 29.284 51.4003 33.8953 52.0625M39.4529 49.8415C41.3505 47.8634 42.7747 44.7409 43.3774 41.0539" stroke="#2AA3D6" stroke-width="2" stroke-linecap="round"/>
<ellipse cx="35.2796" cy="25.6764" rx="3.60574" ry="3.60574" stroke="#2AA3D6" stroke-width="2" stroke-linecap="round"/>
<path d="M49.7023 26.8782L85.8808 42.7658C85.9084 42.7779 85.9316 42.7979 85.9476 42.8234L88.6725 47.1642C88.7211 47.2415 88.6898 47.3439 88.6064 47.381L83.4206 49.6858C83.3796 49.704 83.3327 49.7029 83.2926 49.6829L77.4354 46.7543C77.3814 46.7273 77.3165 46.7353 77.2707 46.7746L73.3144 50.1657C73.2321 50.2363 73.1045 50.1989 73.0731 50.0952L70.5994 41.8951C70.5689 41.7941 70.4465 41.7553 70.3634 41.8202L64.7509 46.207C64.6631 46.2756 64.5338 46.2279 64.5116 46.1187L62.9164 38.2729C62.8966 38.1755 62.7893 38.1239 62.7009 38.1693L55.2626 41.9872C55.1835 42.0278 55.0867 41.9911 55.0544 41.9083L52.7281 35.9463C52.7146 35.9117 52.6887 35.8833 52.6554 35.8667L47.8994 33.4887" stroke="#2AA3D6" stroke-width="2" stroke-linecap="round"/>
<path d="M49.667 78.4166H60.767C60.8498 78.4166 60.917 78.3495 60.917 78.2666V72.3166C60.917 72.2338 60.8498 72.1666 60.767 72.1666H53.417" stroke="#2AA3D6" stroke-width="2" stroke-linecap="round"/>
<path d="M39.042 86.5416V84.1916C39.042 84.1088 38.9748 84.0416 38.892 84.0416H36.067C35.9841 84.0416 35.917 83.9745 35.917 83.8916V81.0666C35.917 80.9838 35.8498 80.9166 35.767 80.9166H32.167" stroke="#2AA3D6" stroke-width="2" stroke-linecap="round"/>
</svg>
