<svg width="101" height="101" viewBox="0 0 101 101" fill="none" xmlns="http://www.w3.org/2000/svg">
<circle cx="67.9718" cy="61.8355" r="2.13004" fill="#2AA3D6"/>
<path d="M75.9327 51.9392V41.8534C75.9327 40.1965 74.5896 38.8534 72.9327 38.8534H21.7578C20.101 38.8534 18.7578 40.1965 18.7578 41.8534V81.8175C18.7578 83.4744 20.101 84.8175 21.7578 84.8175H72.9327C74.5896 84.8175 75.9327 83.4744 75.9327 81.8175V71.9392" stroke="#2AA3D6" stroke-width="1.5" stroke-linecap="round"/>
<rect x="61.3574" y="55.6694" width="21.3005" height="12.3318" rx="1.5" stroke="#2AA3D6" stroke-width="1.5" stroke-linecap="round"/>
<path d="M69.6359 38.8534L74.579 30.9428C75.457 29.5377 75.0297 27.6869 73.6246 26.8089L57.7679 16.9005C56.3628 16.0225 54.512 16.4498 53.634 17.8549L40.5127 38.8534" stroke="#2AA3D6" stroke-width="1.5" stroke-linecap="round"/>
<path d="M52.3905 19.2346L46.1743 16.7882C44.6043 16.1704 42.8337 16.9683 42.2566 18.5538L34.8682 38.8534" stroke="#2AA3D6" stroke-width="1.5" stroke-linecap="round"/>
<path d="M27.3223 38.8534L31.4363 19.4984C31.7808 17.8778 33.3738 16.8433 34.9945 17.1877L42.3 18.7406" stroke="#2AA3D6" stroke-width="1.5" stroke-linecap="round"/>
<path d="M25.4834 45.58H69.2054" stroke="#2AA3D6" stroke-width="1.5" stroke-linecap="round" stroke-dasharray="3 3"/>
<path d="M25.4834 78.0911H69.2054" stroke="#2AA3D6" stroke-width="1.5" stroke-linecap="round" stroke-dasharray="3 3"/>
<path d="M60.9143 39.2488L59.5034 38.339C59.2159 38.7849 58.9246 39.4911 58.3741 39.6588C57.904 39.7603 57.2963 39.3961 57.2133 38.9102C57.113 38.3347 57.6428 37.7738 57.9319 37.3255L56.7175 36.5424C56.4299 36.9883 56.1386 37.6945 55.5882 37.8622C55.1181 37.9637 54.2221 37.4791 54.1391 36.9933C54.0387 36.4177 54.5685 35.8568 54.8576 35.4085L50.5385 32.5576C50.1694 32.3195 49.951 32.0439 49.8834 31.7305C49.8115 31.3976 49.8946 31.0466 50.1326 30.6775L52.1481 27.5523C52.7393 26.6356 53.3931 25.9615 54.1096 25.5301C57.0492 23.7306 60.9497 26.315 60.5323 29.6468C60.4307 30.4578 60.0958 31.3039 59.5276 32.1849L58.2147 34.2208L59.4291 35.0039L60.8111 32.8609C60.9877 32.5871 61.1935 32.4248 61.4285 32.374C61.9165 32.2253 62.5039 32.6329 62.5893 33.1226C62.6281 33.35 62.5592 33.6005 62.3826 33.8744L61.0006 36.0174L62.4115 36.9272C63.9776 37.9372 62.5632 40.3122 60.9143 39.2488ZM56.3318 33.1226L57.4259 31.4261C59.3265 28.4789 55.9312 25.9206 53.8925 29.0818L52.7984 30.7784L56.3318 33.1226Z" fill="#2AA3D6"/>
</svg>
