<svg width="101" height="101" viewBox="0 0 101 101" fill="none" xmlns="http://www.w3.org/2000/svg">
<path d="M39.6864 36.1313V39.9017C39.6864 41.5586 38.3432 42.9017 36.6864 42.9017H32.916" stroke="#2AA3D6" stroke-width="1.5" stroke-linecap="round"/>
<path d="M65.266 69.9614V75.5492C65.266 77.2061 63.9229 78.5492 62.266 78.5492H59.9753H32.5762C30.9193 78.5492 29.5762 77.2061 29.5762 75.5492V43.5477C29.5762 42.7677 29.88 42.0183 30.4232 41.4585L38.5695 33.0633C39.1345 32.4811 39.9112 32.1525 40.7225 32.1525H62.266C63.9229 32.1525 65.266 33.4956 65.266 35.1525V44.4565" stroke="#2AA3D6" stroke-width="1.5" stroke-linecap="round"/>
<path d="M36.3057 23.5294H26.0859C24.0149 23.5294 22.3359 25.2084 22.3359 27.2794V81.9848C22.3359 84.0559 24.0149 85.7348 26.0859 85.7348H68.1289C70.2 85.7348 71.8789 84.0559 71.8789 81.9848V65.2793M57.3813 23.5294H68.1289C70.2 23.5294 71.8789 25.2084 71.8789 27.2794V38.093" stroke="#2AA3D6" stroke-width="1.5" stroke-linecap="round"/>
<rect x="40.1143" y="19.9226" width="13.9856" height="6.56181" rx="0.75" stroke="#2AA3D6" stroke-width="1.5" stroke-linecap="round"/>
<path d="M42.9512 16.1682C42.9512 15.754 43.287 15.4182 43.7012 15.4182H50.5145C50.9287 15.4182 51.2645 15.754 51.2645 16.1682V19.9226H42.9512V16.1682Z" stroke="#2AA3D6" stroke-width="1.5" stroke-linecap="round"/>
<path d="M57.288 58.3451L71.947 43.6861C71.9825 43.6506 72.0333 43.6352 72.0825 43.645L75.463 44.3211C75.492 44.3269 75.5187 44.3412 75.5396 44.3622L78.2784 47.1009C78.2994 47.1219 78.3136 47.1485 78.3195 47.1776L78.9956 50.5581C79.0054 50.6073 78.99 50.6581 78.9545 50.6936L64.2955 65.3526" stroke="#2AA3D6" stroke-width="1.5" stroke-linecap="round"/>
<path d="M74.1064 48.5345L60.7921 61.8488" stroke="#2AA3D6" stroke-width="1.5" stroke-linecap="round"/>
<path d="M54.6455 60.9882L53.464 69.0069C53.4494 69.1064 53.5348 69.1918 53.6343 69.1771L61.653 67.9957" stroke="#2AA3D6" stroke-width="1.5" stroke-linecap="round"/>
<path d="M38.375 66.7073V60.1553M38.375 60.1553H44.413C44.4958 60.1553 44.563 60.0881 44.563 60.0053V53.6033M38.375 60.1553L42.5519 64.7417M44.563 53.6033H50.6009C50.6838 53.6033 50.7509 53.5362 50.7509 53.4533V47.0514M44.563 53.6033L48.5851 58.3535M50.7509 47.0514H56.9389M50.7509 47.0514L55.0825 51.474" stroke="#2AA3D6" stroke-width="1.5" stroke-linecap="round" stroke-linejoin="round"/>
<path d="M36.1885 56.8792L51.4764 41.5913" stroke="#2AA3D6" stroke-width="1.5" stroke-linecap="round"/>
</svg>
