<svg width="101" height="101" viewBox="0 0 101 101" fill="none" xmlns="http://www.w3.org/2000/svg">
<path d="M40.4395 17.9645V24.9645C40.4395 26.6213 39.0963 27.9645 37.4395 27.9645H30.4395" stroke="#2AA3D6" stroke-width="1.5" stroke-linecap="round"/>
<path d="M50.8662 78.4867H28.8662C27.2094 78.4867 25.8662 77.1435 25.8662 75.4867V28.9632C25.8662 28.1832 26.17 27.4339 26.7132 26.8741L38.8199 14.3975C39.3849 13.8153 40.1616 13.4867 40.9729 13.4867H72.8662C74.5231 13.4867 75.8662 14.8298 75.8662 16.4867V75.4867C75.8662 77.1435 74.5231 78.4867 72.8662 78.4867H68.4541" stroke="#2AA3D6" stroke-width="1.5" stroke-linecap="round"/>
<path d="M35.7129 38.8374H66.04" stroke="#2AA3D6" stroke-width="1.5" stroke-linecap="round"/>
<path d="M35.7129 46.5977H66.04" stroke="#2AA3D6" stroke-width="1.5" stroke-linecap="round"/>
<path d="M35.7129 54.3579H66.04" stroke="#2AA3D6" stroke-width="1.5" stroke-linecap="round"/>
<path d="M56.2912 63.2924C56.3553 62.6967 57.0576 62.4129 57.5176 62.797L59.5392 64.4848C59.8137 64.714 60.2119 64.7175 60.4904 64.4931L62.5412 62.8408C63.0078 62.4649 63.705 62.7608 63.7587 63.3576L63.9947 65.9806C64.0268 66.3368 64.3059 66.6208 64.6615 66.6591L67.28 66.9408C67.8757 67.0049 68.1595 67.7073 67.7754 68.1672L66.0876 70.1888C65.8584 70.4634 65.8549 70.8615 66.0793 71.14L67.7316 73.1908C68.1075 73.6574 67.8116 74.3547 67.2148 74.4083L64.5918 74.6443C64.2356 74.6764 63.9516 74.9555 63.9133 75.3111L63.6316 77.9296C63.5675 78.5253 62.8651 78.8091 62.4052 78.4251L60.3836 76.7372C60.109 76.508 59.7109 76.5045 59.4324 76.7289L57.3816 78.3812C56.915 78.7571 56.2177 78.4612 56.1641 77.8644L55.9281 75.2414C55.896 74.8852 55.6169 74.6012 55.2613 74.5629L52.6428 74.2812C52.0471 74.2171 51.7633 73.5148 52.1473 73.0548L53.8352 71.0332C54.0644 70.7587 54.0679 70.3605 53.8435 70.082L52.1912 68.0312C51.8153 67.5646 52.1112 66.8674 52.708 66.8137L55.331 66.5777C55.6872 66.5456 55.9712 66.2665 56.0095 65.9109L56.2912 63.2924Z" stroke="#2AA3D6" stroke-width="1.5" stroke-linecap="round"/>
<path d="M56.2109 82.0215V87.2474C56.2109 87.3582 56.3269 87.4307 56.4265 87.3823L59.8954 85.697C59.9368 85.6769 59.9851 85.6769 60.0265 85.697L63.4954 87.3823C63.595 87.4307 63.7109 87.3582 63.7109 87.2474V82.0215" stroke="#2AA3D6" stroke-width="1.5" stroke-linecap="round"/>
</svg>
