<svg width="101" height="101" viewBox="0 0 101 101" fill="none" xmlns="http://www.w3.org/2000/svg">
<path d="M37.3242 75.3265V86.8839C37.3242 87.007 37.4644 87.0777 37.5634 87.0045L49.6571 78.0588C49.7101 78.0196 49.7825 78.0196 49.8355 78.0588L61.9291 87.0045C62.0281 87.0777 62.1683 87.007 62.1683 86.8839V75.3265" stroke="#2AA3D6" stroke-width="1.5" stroke-linecap="round"/>
<path d="M49.666 74.0417V70.2917" stroke="#2AA3D6" stroke-width="1.5" stroke-linecap="round"/>
<path d="M35.6557 15.8955C36.2064 13.2912 39.2196 12.0737 41.4249 13.5647L47.8862 17.9329C49.1352 18.7773 50.7686 18.7916 52.0322 17.9691L58.5687 13.7143C60.7997 12.2621 63.7912 13.5319 64.2963 16.1455L65.7764 23.8031C66.0625 25.2835 67.2073 26.4485 68.6825 26.7604L76.3131 28.3738C78.9175 28.9245 80.1349 31.9377 78.644 34.143L74.2758 40.6043C73.4313 41.8534 73.4171 43.4867 74.2396 44.7503L78.4944 51.2869C79.9466 53.5178 78.6767 56.5093 76.0632 57.0145L68.4055 58.4945C66.9252 58.7806 65.7602 59.9255 65.4483 61.4006L63.8348 69.0312C63.2841 71.6356 60.2709 72.853 58.0656 71.3621L51.6044 66.9939C50.3553 66.1495 48.7219 66.1352 47.4583 66.9577L40.9218 71.2125C38.6908 72.6647 35.6993 71.3949 35.1942 68.7813L33.7141 61.1237C33.428 59.6433 32.2832 58.4783 30.808 58.1664L23.1774 56.553C20.573 56.0023 19.3556 52.9891 20.8465 50.7838L25.2147 44.3225C26.0592 43.0734 26.0734 41.4401 25.2509 40.1765L20.9961 33.6399C19.5439 31.4089 20.8138 28.4174 23.4274 27.9123L31.085 26.4323C32.5653 26.1462 33.7303 25.0013 34.0423 23.5262L35.6557 15.8955Z" stroke="#2AA3D6" stroke-width="1.5" stroke-linecap="round"/>
<path d="M48.3609 28.4575C48.8733 27.2255 50.6185 27.2255 51.1309 28.4575L53.9795 35.3062C54.1955 35.8255 54.6839 36.1804 55.2446 36.2253L62.6383 36.8181C63.9683 36.9247 64.5076 38.5845 63.4943 39.4525L57.861 44.278C57.4338 44.6439 57.2473 45.2181 57.3778 45.7652L59.0989 52.9803C59.4084 54.2781 57.9966 55.3039 56.8579 54.6084L50.5278 50.742C50.0478 50.4488 49.4441 50.4488 48.964 50.742L42.6339 54.6084C41.4953 55.3039 40.0834 54.2781 40.393 52.9803L42.1141 45.7652C42.2446 45.2181 42.058 44.6439 41.6308 44.278L35.9976 39.4525C34.9843 38.5845 35.5235 36.9247 36.8535 36.8181L44.2473 36.2253C44.808 36.1804 45.2964 35.8255 45.5124 35.3062L48.3609 28.4575Z" stroke="#2AA3D6" stroke-width="1.5" stroke-linecap="round"/>
<circle cx="49.7451" cy="42.4633" r="18.123" stroke="#2AA3D6" stroke-width="1.5" stroke-linecap="round"/>
</svg>
