<svg width="79" height="75" viewBox="0 0 79 75" fill="none" xmlns="http://www.w3.org/2000/svg">
<path d="M32.5557 20.043L35.0337 24.3349C35.5148 25.1683 34.9134 26.2099 33.9511 26.2099H30.6431M28.305 12.6806L22.2451 2.18445C21.7639 1.35111 20.5611 1.35112 20.08 2.18445L16.2684 8.78631M26.0702 26.2099H30.6431M18.5162 26.2099H8.37394C7.41169 26.2099 6.81028 25.1683 7.2914 24.3349L10.7216 18.3937M10.7216 18.3937L12.8911 23.0359M10.7216 18.3937L16.2684 8.78631M18.5162 23.0359L15.9729 17.8297M16.2684 8.78631L19.1837 14.6188M30.6431 26.2099L28.653 22.6731M23.8639 13.7481L20.7075 8.08834" stroke="#2AA3D6" stroke-width="1.5" stroke-linecap="round"/>
<path d="M65.2722 8.15308L62.4804 8.15308C61.5181 8.15308 60.9167 9.19474 61.3978 10.0281L67.7506 21.0313C68.2317 21.8647 69.4345 21.8647 69.9157 21.0313L73.7546 14.382M65.2722 8.15308L75.1859 8.15308C76.1481 8.15308 76.7495 9.19474 76.2684 10.0281L73.7546 14.382M65.2722 8.15308L68.4708 13.9724M73.7546 14.382L72.1792 11.8864" stroke="#2AA3D6" stroke-width="1.5" stroke-linecap="round"/>
<path d="M52.8239 40.1216C48.3201 41.9205 44.7801 45.6181 43.1932 50.225M42.3525 57.2084C43.1233 65.744 50.2975 72.4325 59.0339 72.4325C68.2846 72.4325 75.7837 64.9333 75.7837 55.6826C75.7837 47.3057 69.6343 40.365 61.6035 39.1286C61.4074 39.0984 61.1762 39.0737 61.1 39.0697" stroke="#2AA3D6" stroke-width="1.5" stroke-linecap="round"/>
<path d="M61.0889 46.1005C65.4972 47.054 68.8001 50.9762 68.8001 55.6699C68.8001 61.0772 64.4166 65.4606 59.0093 65.4606C54.117 65.4606 50.0628 61.8723 49.335 57.184M50.8666 50.2316C51.4076 49.4232 52.0658 48.6999 52.8168 48.0859" stroke="#2AA3D6" stroke-width="1.5" stroke-linecap="round"/>
<ellipse cx="9.16803" cy="45.7949" rx="7.16705" ry="7.16705" stroke="#2AA3D6" stroke-width="1.5" stroke-linecap="round"/>
<circle cx="9.16766" cy="45.7947" r="2.18719" stroke="#2AA3D6" stroke-width="1.5" stroke-linecap="round"/>
<path d="M56.2225 16.6709H23.1602C22.7459 16.6709 22.4102 17.0067 22.4102 17.4209V52.8551C22.4102 53.2693 22.7459 53.6051 23.1602 53.6051H38.6738H46.3187H56.2225C56.6367 53.6051 56.9725 53.2693 56.9725 52.8551V43.0058V35.6638V17.4209C56.9725 17.0067 56.6367 16.6709 56.2225 16.6709Z" stroke="#2AA3D6" stroke-width="1.5" stroke-linecap="round"/>
<rect x="22.4102" y="59.9325" width="12.5" height="12.5" rx="0.75" stroke="#2AA3D6" stroke-width="1.5" stroke-linecap="round"/>
</svg>
