<svg width="101" height="101" viewBox="0 0 101 101" fill="none" xmlns="http://www.w3.org/2000/svg">
<path d="M34.3296 65.9696C34.3296 68.3213 33.3269 70.396 32.0165 71.8897C31.3623 72.6353 30.6434 73.2218 29.9588 73.6176C29.2641 74.0193 28.6529 74.1976 28.2046 74.1976C27.7564 74.1976 27.1452 74.0193 26.4505 73.6176C25.7658 73.2218 25.047 72.6353 24.3928 71.8897C23.0824 70.396 22.0796 68.3213 22.0796 65.9696C22.0796 65.7184 22.0788 65.4688 22.0779 65.221C22.0743 64.1829 22.0708 63.1773 22.1318 62.2164C22.2073 61.0288 22.3788 59.9756 22.7394 59.0991C23.0932 58.2389 23.6271 57.5519 24.4492 57.0681C25.2839 56.5769 26.477 56.2594 28.2046 56.2594C29.9323 56.2594 31.1254 56.5769 31.9601 57.0681C32.7822 57.5519 33.3161 58.2389 33.6699 59.0991C34.0304 59.9756 34.202 61.0288 34.2774 62.2164C34.3385 63.1773 34.335 64.1829 34.3314 65.221C34.3305 65.4688 34.3296 65.7184 34.3296 65.9696Z" stroke="#2AA3D6" stroke-width="1.5"/>
<path d="M79.6226 56.4536C79.6226 58.818 78.619 60.9035 77.3083 62.4042C76.654 63.1534 75.935 63.7426 75.2505 64.1402C74.5558 64.5438 73.945 64.7226 73.4976 64.7226C73.0502 64.7226 72.4394 64.5438 71.7447 64.1402C71.0602 63.7426 70.3412 63.1534 69.6869 62.4042C68.3762 60.9035 67.3726 58.818 67.3726 56.4536C67.3726 56.2012 67.3717 55.9505 67.3709 55.7017C67.3673 54.6588 67.3638 53.6483 67.4248 52.6828C67.5003 51.4894 67.6719 50.4306 68.0328 49.5493C68.387 48.6841 68.9215 47.9936 69.7435 47.5076C70.5778 47.0144 71.7704 46.6956 73.4976 46.6956C75.2248 46.6956 76.4174 47.0144 77.2517 47.5076C78.0738 47.9936 78.6082 48.6841 78.9624 49.5493C79.3233 50.4306 79.495 51.4894 79.5704 52.6828C79.6315 53.6483 79.628 54.6587 79.6243 55.7017C79.6235 55.9505 79.6226 56.2012 79.6226 56.4536Z" stroke="#2AA3D6" stroke-width="1.5"/>
<path d="M13.6621 87.1953V81.4202C13.6621 80.8048 14.038 80.2518 14.6102 80.0254L22.4583 76.92C23.0763 76.6755 23.7814 76.8667 24.1912 77.3899L27.8056 82.0052C27.9558 82.197 28.246 82.197 28.3961 82.0052L31.5494 77.9781C32.2323 77.106 33.4076 76.7873 34.4375 77.1948L40.9589 79.7753C41.9126 80.1527 42.5391 81.0743 42.5391 82.0999V87.1953" stroke="#2AA3D6" stroke-width="1.5" stroke-linecap="round"/>
<path d="M58.9551 77.7203V71.9452C58.9551 71.3298 59.331 70.7768 59.9032 70.5504L67.7513 67.445C68.3692 67.2005 69.0744 67.3917 69.4842 67.9149L73.0986 72.5303C73.2487 72.722 73.539 72.722 73.6891 72.5302L76.8424 68.5031C77.5253 67.6311 78.7005 67.3123 79.7304 67.7199L86.2519 70.3003C87.2056 70.6777 87.832 71.5993 87.832 72.6249V77.7203" stroke="#2AA3D6" stroke-width="1.5" stroke-linecap="round"/>
<path d="M25.0762 23.2886H53.2769C54.9337 23.2886 56.2769 24.6317 56.2769 26.2886V43.6352C56.2769 45.2921 54.9337 46.6352 53.2769 46.6352H39.2777C39.0196 46.6352 38.7693 46.724 38.5689 46.8866L30.4285 53.4909V47.4602C30.4285 47.0046 30.0591 46.6352 29.6035 46.6352H25.0762C23.4193 46.6352 22.0762 45.2921 22.0762 43.6352V26.2886C22.0762 24.6317 23.4193 23.2886 25.0762 23.2886Z" stroke="#2AA3D6" stroke-width="1.5"/>
<path d="M60.4217 38.2656L69.2767 45.4496C69.5218 45.6484 69.8879 45.474 69.8879 45.1584V38.3406C69.8879 38.2992 69.9215 38.2656 69.9629 38.2656H74.4902C76.5613 38.2656 78.2402 36.5867 78.2402 34.5156V17.169C78.2402 15.0979 76.5613 13.4189 74.4902 13.4189H46.2896C44.2185 13.4189 42.5396 15.0979 42.5396 17.1689V20.1079" stroke="#2AA3D6" stroke-width="1.5" stroke-linecap="round"/>
<circle cx="29.9941" cy="34.5238" r="2.375" fill="#2AA3D6"/>
<circle cx="39.1768" cy="34.5238" r="2.375" fill="#2AA3D6"/>
<circle cx="48.3564" cy="34.5238" r="2.375" fill="#2AA3D6"/>
<circle cx="70.1289" cy="26.3105" r="2.375" fill="#2AA3D6"/>
<circle cx="61.1152" cy="26.3105" r="2.375" fill="#2AA3D6"/>
</svg>
