<svg width="101" height="101" viewBox="0 0 101 101" fill="none" xmlns="http://www.w3.org/2000/svg">
<path d="M68.8877 18.7291V28.2984" stroke="#2AA3D6" stroke-width="1.5" stroke-linecap="round"/>
<path d="M51.2344 18.7291V28.2984" stroke="#2AA3D6" stroke-width="1.5" stroke-linecap="round"/>
<path d="M32.9277 18.7291V28.2984" stroke="#2AA3D6" stroke-width="1.5" stroke-linecap="round"/>
<circle cx="80.0019" cy="60.9757" r="2.11716" fill="#2AA3D6"/>
<ellipse cx="80.0019" cy="50.2437" rx="2.11716" ry="2.11716" fill="#2AA3D6"/>
<ellipse cx="70.1972" cy="60.9757" rx="2.11716" ry="2.11716" fill="#2AA3D6"/>
<circle cx="60.3916" cy="60.9757" r="2.11716" fill="#2AA3D6"/>
<ellipse cx="60.3916" cy="50.2437" rx="2.11716" ry="2.11716" fill="#2AA3D6"/>
<ellipse cx="50.5869" cy="50.2437" rx="2.11716" ry="2.11716" fill="#2AA3D6"/>
<ellipse cx="40.7802" cy="60.9757" rx="2.11716" ry="2.11716" fill="#2AA3D6"/>
<ellipse cx="40.7802" cy="71.7074" rx="2.11716" ry="2.11716" fill="#2AA3D6"/>
<ellipse cx="30.9756" cy="60.9757" rx="2.11716" ry="2.11716" fill="#2AA3D6"/>
<ellipse cx="30.9756" cy="71.7074" rx="2.11716" ry="2.11716" fill="#2AA3D6"/>
<ellipse cx="21.1689" cy="60.9757" rx="2.11716" ry="2.11716" fill="#2AA3D6"/>
<ellipse cx="21.1689" cy="71.7072" rx="2.11716" ry="2.11716" fill="#2AA3D6"/>
<path d="M28.397 25.4131H17.8496C16.1928 25.4131 14.8496 26.7562 14.8496 28.4131V78.571C14.8496 80.2278 16.1928 81.571 17.8496 81.571H83.3212C84.978 81.571 86.3212 80.2278 86.3212 78.571V28.4131C86.3212 26.7562 84.978 25.4131 83.3212 25.4131H73.0429M37.4102 25.4131H46.9372M55.3433 25.4131H64.3099" stroke="#2AA3D6" stroke-width="1.5" stroke-linecap="round"/>
<path d="M14.7744 38.4329H86.2688" stroke="#2AA3D6" stroke-width="1.5" stroke-linecap="round"/>
<path d="M66.1934 50.8287L68.8001 53.3439C68.8603 53.4019 68.9563 53.3996 69.0135 53.3387L74.1982 47.827" stroke="#2AA3D6" stroke-width="1.5" stroke-linecap="round"/>
<path d="M46.1826 61.1663L48.7894 63.6814C48.8495 63.7394 48.9455 63.7371 49.0028 63.6762L54.1874 58.1646" stroke="#2AA3D6" stroke-width="1.5" stroke-linecap="round"/>
</svg>
