<svg width="18" height="19" viewBox="0 0 18 19" fill="none" xmlns="http://www.w3.org/2000/svg">
<path d="M6.73013 2.46129C6.45402 1.771 5.78545 1.31836 5.04199 1.31836H2.54085C1.58954 1.31836 0.818359 2.08958 0.818359 3.04088C0.818359 11.127 7.37361 17.682 15.4597 17.682C16.411 17.682 17.182 16.9109 17.182 15.9596L17.1819 13.4584C17.1819 12.7149 16.7292 12.0464 16.0389 11.7703L13.643 10.8119C13.023 10.5639 12.317 10.6756 11.804 11.1032L11.1848 11.619C10.4624 12.221 9.40016 12.1729 8.73522 11.5079L6.99233 9.76518C6.32738 9.10024 6.27947 8.03794 6.88148 7.31553L7.39728 6.69652C7.82482 6.18348 7.93656 5.47739 7.68854 4.85733L6.73013 2.46129Z" stroke="#BECBD6" stroke-width="1.5" stroke-linecap="round" stroke-linejoin="round"/>
</svg>
