<svg width="189" height="80" viewBox="0 0 189 80" fill="none" xmlns="http://www.w3.org/2000/svg">
<path d="M78.9456 40.009V73.1042L71.1563 65.3149V43.2525L56.5452 28.6413L51.0304 23.1249L45.514 17.6101L44.2288 16.3233L39.9992 12.0937L35.768 16.3233L34.4828 17.6101L23.4516 28.6413L16.6313 35.4616L1.05273 51.0402V40.0074L23.4516 17.6085L24.7384 16.3233L28.9664 12.0937L32.5277 8.53399L34.4828 6.57732L39.9992 1.0625L56.5468 17.6101L62.0616 23.1249L63.3671 24.4304L78.9456 40.009Z" fill="#BECBD6"/>
<path d="M73.4479 78.6378H1.05273V62.0715L16.6313 46.4929L28.968 34.1578L34.4828 28.6414L39.9992 23.125L45.514 28.6414L51.0304 34.1562L63.367 46.4929V57.5257L45.514 39.6726L39.9992 34.1562L8.84202 65.3134V70.8485H65.6587L73.4479 78.6378Z" fill="white"/>
<path d="M57.8728 63.0597H22.1309L40.0026 45.1895L57.8728 63.0597Z" fill="#2AA3D6"/>
<path fill-rule="evenodd" clip-rule="evenodd" d="M163.992 40.5469H186.153V53.5412L183.407 52.2821V42.9753H166.739V67.3359H163.992V40.5469Z" fill="white"/>
<path d="M183.407 52.0821V67.3359H186.153V53.3413L183.407 52.0821Z" fill="white"/>
<path fill-rule="evenodd" clip-rule="evenodd" d="M163.992 40.5469H186.153V53.5412L183.407 52.2821V42.9753H166.739V67.3359H163.992V40.5469Z" stroke="white" stroke-width="2.00667"/>
<path d="M183.407 52.0821V67.3359H186.153V53.3413L183.407 52.0821Z" stroke="white" stroke-width="2.00667"/>
<path d="M145.863 67.335C143.881 67.335 142.05 67.0089 140.369 66.3567C135.267 64.3007 132.092 59.4119 132.092 53.9404C132.092 46.2615 138.466 40.5459 145.9 40.5459C149.39 40.5459 152.881 40.5462 156.371 40.5459L155.23 43.0292H145.975C139.953 43.0292 134.838 47.7562 134.838 53.9404C134.838 58.3922 137.43 62.3736 141.573 64.0616C142.928 64.5883 144.395 64.8517 145.975 64.8517H156.448V67.335H145.863Z" fill="white" stroke="white" stroke-width="2.00667"/>
<path d="M115.923 60.0129L116.933 57.7361H121.802L115.463 43.4505L104.907 67.3359H102.01L114.109 40.5469H116.855L128.96 67.3359H126.025L122.812 60.0129H115.923Z" fill="white" stroke="white" stroke-width="2.00667"/>
</svg>
