<svg width="80" height="80" viewBox="0 0 80 80" fill="none" xmlns="http://www.w3.org/2000/svg">
<path d="M32.8231 25.4032V27.2017C32.8231 30.0069 30.549 32.281 27.7438 32.281H25.9453" stroke="#2AA3D6" stroke-width="2" stroke-linecap="round"/>
<path d="M58.8081 59.7702V63.415C58.8081 66.2202 56.534 68.4943 53.7287 68.4943H53.4334H27.6311C24.8259 68.4943 22.5518 66.2202 22.5518 63.415V33.7609C22.5518 32.4402 23.0661 31.1715 23.9858 30.2237L31.0893 22.9032C32.0459 21.9174 33.3609 21.3611 34.7346 21.3611H53.7287C56.534 21.3611 58.8081 23.6352 58.8081 26.4404V33.8604" stroke="#2AA3D6" stroke-width="2" stroke-linecap="round"/>
<path d="M29.3898 12.6012H21.5474C18.0409 12.6012 15.1982 15.4438 15.1982 18.9504V69.4448C15.1982 72.9514 18.0409 75.794 21.5475 75.794H59.1784C62.685 75.794 65.5276 72.9514 65.5276 69.4448V55.0138M50.7999 12.6012H59.1784C62.6849 12.6012 65.5276 15.4438 65.5276 18.9504V27.396" stroke="#2AA3D6" stroke-width="2" stroke-linecap="round"/>
<rect x="33.2588" y="8.93726" width="14.2076" height="6.66597" rx="1.26984" stroke="#2AA3D6" stroke-width="2" stroke-linecap="round"/>
<path d="M36.1406 5.63117C36.1406 4.92986 36.7092 4.36133 37.4105 4.36133H43.3161C44.0174 4.36133 44.5859 4.92986 44.5859 5.63117V8.93723H36.1406V5.63117Z" stroke="#2AA3D6" stroke-width="2" stroke-linecap="round"/>
<path d="M50.705 47.9696L65.5583 33.1163C65.6183 33.0563 65.7044 33.0302 65.7877 33.0468L69.1384 33.717C69.1875 33.7268 69.2327 33.751 69.2681 33.7864L72.0069 36.5252C72.0423 36.5606 72.0665 36.6058 72.0763 36.655L72.7465 40.0057C72.7631 40.0889 72.7371 40.175 72.677 40.2351L57.8237 55.0883" stroke="#2AA3D6" stroke-width="2" stroke-linecap="round"/>
<path d="M67.791 38.0033L54.2654 51.5289" stroke="#2AA3D6" stroke-width="2" stroke-linecap="round"/>
<path d="M48.0205 50.6547L46.8402 58.6654C46.8154 58.8339 46.9601 58.9785 47.1285 58.9537L55.1393 57.7734" stroke="#2AA3D6" stroke-width="2" stroke-linecap="round"/>
<path d="M31.4902 56.4645V49.8085M31.4902 49.8085H37.5224C37.6627 49.8085 37.7764 49.6948 37.7764 49.5545V43.1525M31.4902 49.8085L35.7334 54.4677M37.7764 43.1525H43.8086C43.9489 43.1525 44.0626 43.0388 44.0626 42.8986V36.4966M37.7764 43.1525L41.8624 47.9781M44.0626 36.4966H50.3488M44.0626 36.4966L48.4629 40.9894" stroke="#2AA3D6" stroke-width="2" stroke-linecap="round" stroke-linejoin="round"/>
<path d="M29.2705 46.4805L44.8011 30.95" stroke="#2AA3D6" stroke-width="2" stroke-linecap="round"/>
</svg>
