<svg width="124" height="40" viewBox="0 0 124 40" fill="none" xmlns="http://www.w3.org/2000/svg">
<path d="M29.0004 29.9091H12.6367L20.8185 21.7273L29.0004 29.9091Z" fill="#2AA3D6"/>
<path d="M38.6364 19.3636V34.5L35.0682 30.9318V20.8409L28.3864 14.159L25.8637 11.6363L23.3409 9.11359L22.75 8.52268L20.8182 6.59086L18.8864 8.52268L18.2955 9.11359L13.25 14.159L10.1136 17.2954L3 24.409V19.3636L13.25 9.11359L13.8409 8.52268L15.7727 6.59086L17.4091 4.9545L18.2955 4.06814L20.8182 1.54541L28.3864 9.11359L30.9091 11.6363L31.5 12.2272L38.6364 19.3636Z" fill="#BECBD6"/>
<path d="M36.1137 37H3V29.3955L10.1364 22.2463L15.7727 16.5999L18.2955 14.0727L20.8182 11.5454L23.3409 14.0727L25.8637 16.5999L31.5 22.2463V27.3236L23.3409 19.1271L20.8182 16.5999L6.56818 30.8754V33.4026H32.5455L36.1137 37Z" fill="white"/>
<path d="M67.5528 36H64.7885L62.5224 30.9445H56.4314L57.5564 28.4329H61.3974L59.4849 24.1503L58.1028 21.0751L54.7921 28.4329L53.6671 30.9445L51.401 36H48.6367L50.9028 30.9445L52.0278 28.4329L56.7206 18H59.4689L60.851 21.0912L64.1617 28.4329L65.2867 30.9445L67.5528 36Z" fill="white"/>
<path d="M85.0225 33.4722V36H76.9546C74.5278 36 72.3261 35.034 70.7189 33.4722C69.0314 31.83 67.9707 29.5438 67.9707 27C67.9707 24.4562 69.0153 22.1699 70.7189 20.5277C72.3261 18.966 74.5439 18 76.9546 18C78.4653 18 85.0225 18 85.0225 18C85.0225 18 84.235 19.7549 83.8814 20.5277H76.9386C73.3707 20.5277 70.4778 23.4258 70.4778 27C70.4778 30.5742 73.3707 33.4722 76.9386 33.4722H85.0225Z" fill="white"/>
<path d="M103.456 18V36H100.933V20.5277H90.5349V36H88.0117V18H103.456Z" fill="white"/>
</svg>
