<svg width="20" height="21" viewBox="0 0 20 21" fill="none" xmlns="http://www.w3.org/2000/svg">
<path d="M2.44444 4.92857L10.2159 10.5L17.5555 4.92857M18.5 6.97138V14.0285C18.5 15.0686 18.5002 15.5888 18.2943 15.986C18.1132 16.3355 17.8239 16.6195 17.4685 16.7976C17.0644 17 16.5358 17 15.478 17H4.52241C3.46453 17 2.9352 17 2.53114 16.7976C2.17572 16.6195 1.88697 16.3355 1.70588 15.986C1.5 15.5888 1.5 15.0686 1.5 14.0285V6.97138C1.5 5.93129 1.5 5.4113 1.70588 5.01404C1.88697 4.66459 2.17572 4.38047 2.53114 4.20242C2.9352 4 3.46453 4 4.52241 4H15.478C16.5358 4 17.0644 4 17.4685 4.20242C17.8239 4.38047 18.1132 4.66459 18.2943 5.01404C18.5002 5.4113 18.5 5.93129 18.5 6.97138Z" stroke="#BECBD6" stroke-width="1.5" stroke-linecap="round" stroke-linejoin="round"/>
</svg>
