<svg width="34" height="34" viewBox="0 0 34 34" fill="none" xmlns="http://www.w3.org/2000/svg">
<path fill-rule="evenodd" clip-rule="evenodd" d="M25.1248 11.6679L22.1901 23.0585C21.9244 24.0899 20.7254 24.5045 19.8755 23.9787C19.1796 23.5481 17.7323 22.6979 14.8927 21.1715C14.3278 20.8678 14.1255 20.0766 14.6102 19.5412L16.0244 17.9791L13.7052 19.2499C12.9568 19.66 12.0314 19.8989 11.0761 19.6994C9.77938 19.4287 8.56197 18.9432 8.19449 18.7905C7.26938 18.4058 7.3954 17.1807 8.20166 16.8511L23.7713 10.4869C24.5363 10.1742 25.3311 10.8672 25.1248 11.6679ZM8.58003 17.7768C8.53913 17.7935 8.53759 17.8501 8.57839 17.8671C8.92775 18.0123 10.0765 18.4692 11.2804 18.7205C11.9461 18.8595 12.6283 18.6997 13.2247 18.3729L19.9688 14.6774C20.1171 14.5962 20.2656 14.7843 20.1521 14.9097L15.3515 20.2124C15.3297 20.2365 15.3376 20.2753 15.3662 20.2906C18.2154 21.8223 19.682 22.683 20.4017 23.1283C20.7063 23.3167 21.1324 23.1559 21.2218 22.809L24.1564 11.4184C24.1574 11.4144 24.1535 11.411 24.1497 11.4125L8.58003 17.7768Z" fill="#2AA3D6"/>
</svg>
