<svg width="34" height="34" viewBox="0 0 34 34" fill="none" xmlns="http://www.w3.org/2000/svg">
<path fill-rule="evenodd" clip-rule="evenodd" d="M14.3416 12.6949C14.2102 12.3994 13.9419 12.1652 13.6192 12.1859C12.6084 12.2508 11.9838 13.1793 11.7018 14.1596C11.3777 15.2866 11.7522 16.4809 12.4152 17.4482C13.0341 18.351 13.8244 19.1556 14.7121 19.8066C15.9369 20.7049 17.5494 21.3351 18.8535 20.5563C19.5242 20.1556 20.1051 19.5568 20.2553 18.9033C20.3306 18.5756 20.0923 18.2845 19.7862 18.1453L18.2617 17.4519C18.0578 17.3592 17.7913 17.405 17.6023 17.5252C17.2741 17.734 16.8392 17.9834 16.4893 17.8135C15.6329 17.3976 15.0653 16.8611 14.6554 15.9827C14.4919 15.6324 14.7239 15.1946 14.9283 14.8664C15.054 14.6645 15.0953 14.3909 14.9987 14.1736L14.3416 12.6949ZM13.5686 13.0486L14.1893 14.4452C14.0816 14.6199 13.937 14.8718 13.8455 15.1537C13.7498 15.4483 13.6747 15.8913 13.8852 16.3422C14.385 17.4132 15.1025 18.085 16.118 18.5781C16.5825 18.8037 17.0385 18.7165 17.3328 18.6143C17.6022 18.5207 17.845 18.3768 18.0117 18.272L19.3652 18.8876C19.2258 19.1867 18.9003 19.5382 18.4176 19.8265C18.0045 20.0733 17.5163 20.1193 16.9513 19.9838C16.3757 19.8458 15.769 19.5277 15.2148 19.1212C14.4008 18.5242 13.6786 17.7879 13.1163 16.9676C12.5372 16.1228 12.2893 15.192 12.5187 14.3946C12.7557 13.5706 13.1602 13.1345 13.5686 13.0486Z" fill="#2AA3D6"/>
<path d="M18.7617 15.5238C18.8344 15.8 18.6071 16.0483 18.3214 16.0483C18.1002 16.0483 17.9124 15.8956 17.8256 15.6921C17.6106 15.1886 17.2104 14.7884 16.7068 14.5734C16.5033 14.4866 16.3506 14.2988 16.3506 14.0776C16.3506 13.792 16.5988 13.5647 16.8751 13.6373C17.8089 13.8829 18.5163 14.591 18.7617 15.5238Z" fill="#2AA3D6"/>
<path d="M20.3362 16.1414C20.6389 16.1414 20.8737 15.8733 20.8012 15.5794C20.3426 13.7177 18.8676 12.2427 17.0059 11.7841C16.7119 11.7117 16.4438 11.9465 16.4438 12.2492C16.4438 12.4903 16.6171 12.6939 16.8492 12.7591C18.284 13.1618 19.4235 14.3012 19.8262 15.736C19.8914 15.9681 20.0951 16.1414 20.3362 16.1414Z" fill="#2AA3D6"/>
<path d="M22.6797 15.7381C22.6889 16.004 22.4676 16.2135 22.2016 16.2135C21.916 16.2135 21.6914 15.9732 21.6766 15.688C21.5484 13.2164 19.513 11.181 17.0414 11.0527C16.7562 11.038 16.5159 10.8134 16.5159 10.5278C16.5159 10.2617 16.7254 10.0405 16.9913 10.0497C20.0466 10.1554 22.574 12.6828 22.6797 15.7381Z" fill="#2AA3D6"/>
<path fill-rule="evenodd" clip-rule="evenodd" d="M21.0567 23.1157C23.2846 22.7066 24.9538 20.8831 25.2254 18.6344C25.3389 17.6946 25.3986 16.7213 25.3986 15.7243C25.3986 14.7274 25.3389 13.7541 25.2254 12.8143C24.9538 10.5655 23.2846 8.7421 21.0567 8.33299C19.7616 8.09517 18.3815 7.9668 16.9493 7.9668C15.517 7.9668 14.1369 8.09517 12.8419 8.33299C10.614 8.7421 8.94475 10.5655 8.67314 12.8143C8.55962 13.7541 8.5 14.7274 8.5 15.7243C8.5 16.7213 8.55962 17.6946 8.67314 18.6344C8.90521 20.5558 10.1577 22.1667 11.9071 22.8502C12.1113 22.93 12.2552 23.1213 12.2552 23.3406V25.9874C12.2552 26.457 12.844 26.6675 13.1418 26.3045L15.3315 23.6349C15.4334 23.5108 15.5886 23.4434 15.749 23.4516C16.1444 23.4716 16.5448 23.4819 16.9493 23.4819C18.3815 23.4819 19.7616 23.3535 21.0567 23.1157ZM20.8761 22.1321C22.6609 21.8044 24.012 20.3413 24.2327 18.5145C24.3413 17.6148 24.3986 16.6815 24.3986 15.7243C24.3986 14.7671 24.3413 13.8339 24.2327 12.9342C24.012 11.1073 22.6609 9.64429 20.8761 9.31654C19.6418 9.08988 18.3222 8.9668 16.9493 8.9668C15.5764 8.9668 14.2568 9.08988 13.0225 9.31654C11.2377 9.64429 9.88658 11.1073 9.66592 12.9342C9.55725 13.8339 9.5 14.7671 9.5 15.7243C9.5 16.6815 9.55725 17.6148 9.66592 18.5145C9.85441 20.075 10.8691 21.3711 12.271 21.9187C12.819 22.1328 13.2552 22.6684 13.2552 23.3406V24.5894L14.5584 23.0007C14.8652 22.6267 15.3283 22.429 15.7996 22.4529C16.1782 22.472 16.5616 22.4819 16.9493 22.4819C18.3222 22.4819 19.6418 22.3588 20.8761 22.1321Z" fill="#2AA3D6"/>
</svg>
