<svg width="34" height="34" viewBox="0 0 34 34" fill="none" xmlns="http://www.w3.org/2000/svg">
<path fill-rule="evenodd" clip-rule="evenodd" d="M15.0851 12.3332C15.2793 12.3859 15.4113 12.5543 15.4931 12.7382L16.2386 14.4157C16.3357 14.6341 16.2942 14.9093 16.1678 15.1122C15.9623 15.4421 15.7291 15.8822 15.8935 16.2344C16.3056 17.1173 16.8761 17.6567 17.737 18.0747C18.0887 18.2455 18.5258 17.9948 18.8558 17.7849C19.0458 17.6641 19.3137 17.618 19.5187 17.7112L21.2672 18.5065C21.4477 18.5886 21.6128 18.7193 21.6656 18.9104C21.9432 19.9147 20.7308 21.2059 19.7941 21.2059C18.8748 21.2059 17.9646 21.0249 17.1153 20.6731C16.266 20.3213 15.4943 19.8057 14.8443 19.1557C14.1943 18.5057 13.6787 17.734 13.3269 16.8847C12.9751 16.0354 12.7941 15.1252 12.7941 14.2059C12.7941 13.2706 14.0814 12.0605 15.0851 12.3332ZM15.43 14.6891L14.7445 13.1469C14.6011 13.1599 14.3767 13.2376 14.118 13.4605C13.7698 13.7605 13.6441 14.0823 13.6441 14.2059C13.6441 15.0136 13.8031 15.8133 14.1122 16.5594C14.4213 17.3056 14.8743 17.9836 15.4454 18.5546C16.0164 19.1257 16.6944 19.5787 17.4406 19.8878C18.1867 20.1969 18.9864 20.3559 19.7941 20.3559C19.918 20.3559 20.2406 20.2297 20.5407 19.8806C20.7647 19.6201 20.8414 19.3949 20.8533 19.252L19.2671 18.5306C19.0995 18.636 18.8548 18.7812 18.5835 18.8755C18.2881 18.9781 17.8311 19.0653 17.3657 18.8393C16.3457 18.344 15.6253 17.6695 15.1233 16.5938C14.9124 16.142 14.9875 15.698 15.0835 15.4023C15.1758 15.1184 15.3216 14.8647 15.43 14.6891Z" fill="#2AA3D6"/>
<path fill-rule="evenodd" clip-rule="evenodd" d="M17.25 25.5C22.0825 25.5 26 21.5825 26 16.75C26 11.9175 22.0825 8 17.25 8C12.4175 8 8.5 11.9175 8.5 16.75C8.5 18.2082 8.85668 19.583 9.48754 20.7921C9.54732 20.9066 9.56407 21.0392 9.53063 21.164L8.53698 24.8724C8.43736 25.2441 8.77757 25.5843 9.14936 25.4847L12.8709 24.4875C12.995 24.4543 13.1268 24.4706 13.2409 24.5296C14.442 25.1498 15.8051 25.5 17.25 25.5ZM25 16.75C25 21.0302 21.5302 24.5 17.25 24.5C15.9684 24.5 14.7623 24.1897 13.6997 23.641C13.3752 23.4735 12.9882 23.4208 12.6121 23.5216L9.72705 24.2947L10.4966 21.4228C10.5979 21.0445 10.5441 20.6552 10.3741 20.3295C9.81599 19.2598 9.5 18.0433 9.5 16.75C9.5 12.4698 12.9698 9 17.25 9C21.5302 9 25 12.4698 25 16.75Z" fill="#2AA3D6"/>
</svg>
